<svg width="22" height="22" viewBox="0 0 22 22" fill="none" xmlns="http://www.w3.org/2000/svg">
<path d="M10.999 0.458496L14.8729 6.12625L21.4609 8.05949L17.2672 13.4953L17.4643 20.3575L10.999 18.0493L4.53378 20.3575L4.73086 13.4953L0.537109 8.05949L7.12519 6.12625L10.999 0.458496ZM9.16569 11.0002H7.33236C7.33234 11.9568 7.70617 12.8755 8.37406 13.5603C9.04196 14.2451 9.95104 14.6418 10.9073 14.6657C11.8636 14.6897 12.7914 14.3389 13.4927 13.6883C14.194 13.0378 14.6133 12.1389 14.6611 11.1835L14.6657 11.0002H12.8324C12.8345 11.4759 12.6516 11.9338 12.3223 12.2772C11.9931 12.6206 11.5432 12.8226 11.0678 12.8404C10.5924 12.8583 10.1287 12.6906 9.77462 12.3729C9.42054 12.0551 9.20383 11.6122 9.17028 11.1377L9.16569 11.0002Z" fill="white"/>
</svg>
