<svg width="22" height="22" viewBox="0 0 22 22" fill="none" xmlns="http://www.w3.org/2000/svg">
<path fill-rule="evenodd" clip-rule="evenodd" d="M7.43132 0.0508467C6.77789 0.141713 5.69764 0.469432 5.04182 0.775843C1.75684 2.31072 -0.188229 5.51192 0.0144279 9.05017C0.0856222 10.2934 0.341851 11.2944 0.861446 12.3586C1.36721 13.3945 1.94055 14.1768 2.74316 14.9265C3.77072 15.886 4.9234 16.5402 6.27821 16.9325C7.21113 17.2026 7.30127 17.2063 7.58332 16.9845C7.77672 16.8325 7.81056 16.7191 7.86563 16.038C7.89999 15.6125 7.9829 15.0067 8.04987 14.6919C8.60013 12.1034 10.3345 9.8788 12.718 8.70458C13.7709 8.18588 14.7354 7.92508 15.9488 7.83122C16.7266 7.771 16.867 7.73542 17.0066 7.56302C17.2192 7.30073 17.2104 7.11054 16.943 6.18849C15.8728 2.498 12.4249 -0.0556927 8.58911 0.000922851C8.09771 0.00814288 7.57671 0.0305954 7.43132 0.0508467ZM12.338 3.21005C13.1797 3.64492 13.2652 5.07678 12.4828 5.63351C11.9334 6.02445 11.0764 5.95762 10.6056 5.48718C9.4149 4.29728 10.8335 2.43258 12.338 3.21005ZM6.42491 3.7099C7.57759 4.48615 7.23959 6.12721 5.87633 6.37348C5.46582 6.44762 4.87203 6.19659 4.54813 5.8119C3.95161 5.10355 4.29129 3.90863 5.18447 3.57325C5.52071 3.44699 6.13503 3.5147 6.42491 3.7099ZM21.5373 7.46344C21.4011 7.60555 21.0462 7.85174 20.7485 8.01049C20.2578 8.27244 20.117 8.30369 19.2314 8.34781C18.3647 8.39095 18.2154 8.42291 17.8985 8.63273C17.4534 8.92735 16.8932 9.77253 16.5871 10.6113L16.3536 11.251L17.3479 12.3111C18.0469 13.0565 18.4008 13.3712 18.54 13.3712C18.8501 13.3712 19.7659 13.0621 20.1874 12.8153C21.0048 12.3366 21.71 11.2833 21.9337 10.2071C22.0496 9.64952 22.004 7.59604 21.8705 7.3576C21.7934 7.2199 21.7609 7.2302 21.5373 7.46344ZM4.88719 9.28808C5.76575 9.70464 5.944 10.8688 5.23734 11.575C4.53068 12.2811 3.36567 12.103 2.94881 11.2251C2.35891 9.98297 3.64419 8.69859 4.88719 9.28808ZM14.9649 12.5152C14.7468 12.7201 14.3741 13.0563 14.1365 13.2623L13.7048 13.6368L14.7943 14.7381L15.8838 15.8394L16.6579 15.0694C17.0836 14.6459 17.432 14.2659 17.432 14.2248C17.432 14.1125 15.5564 12.1381 15.452 12.1405C15.4021 12.1417 15.183 12.3103 14.9649 12.5152ZM11.3685 15.9466C9.97132 17.3656 8.96024 18.5389 8.27667 19.5346C7.115 21.2266 6.94433 22 7.73258 22C8.64462 22 11.475 20.0582 14.26 17.5218L14.8327 17.0002L13.7358 15.8901C13.1325 15.2796 12.6116 14.78 12.5781 14.78C12.5446 14.78 12.0003 15.305 11.3685 15.9466Z" fill="#4546EA"/>
</svg>
