<svg width="18" height="18" viewBox="0 0 18 18" fill="none" xmlns="http://www.w3.org/2000/svg">
<path fill-rule="evenodd" clip-rule="evenodd" d="M1.70587 0.00827826C1.22421 0.0612105 0.765698 0.305627 0.458372 0.67327C0.200958 0.981223 0.0495133 1.34014 0.00980726 1.73638C-0.00326909 1.86685 -0.00326909 16.1322 0.00980726 16.2627C0.10199 17.1826 0.817247 17.8986 1.73608 17.9909C2.22683 18.0402 2.73707 17.8848 3.13021 17.5664C3.22309 17.4912 3.3515 17.3604 3.42261 17.2686C3.5127 17.1523 7.32407 11.4837 7.35136 11.4254C7.37306 11.379 7.37559 11.3633 7.37559 11.2745C7.37559 11.181 7.37394 11.172 7.34635 11.1156C7.23492 10.8875 6.96656 10.8046 6.76992 10.9375C6.74855 10.952 5.89682 11.6864 4.8772 12.5697C3.85759 13.453 3.00635 14.1851 2.98558 14.1966C2.91926 14.2335 2.84855 14.2133 2.80154 14.1442L2.78127 14.1143L2.78354 9.03646C2.78581 3.97443 2.78587 3.95851 2.80382 3.93442C2.84392 3.88058 2.93338 3.85654 2.9928 3.88364C3.00609 3.8897 5.43795 6.79555 8.63819 10.6294C11.7303 14.3336 14.2865 17.3924 14.3185 17.4265C14.608 17.7352 15.0468 17.9455 15.4964 17.9909C15.6168 18.003 16.1431 18.003 16.264 17.9909C17.1823 17.8987 17.8998 17.1804 17.9904 16.2627C18.0033 16.1315 18.0032 1.86558 17.9902 1.73638C17.8884 0.720553 17.0233 -0.0376895 16.0107 0.00144887C15.4188 0.0243336 14.8796 0.301582 14.5352 0.760124C14.4351 0.893477 10.6468 6.52962 10.6284 6.57269C10.6007 6.63729 10.5901 6.71851 10.6013 6.77925C10.6399 6.98862 10.8271 7.13832 11.0309 7.12289C11.1505 7.11383 11.1868 7.08986 11.5154 6.80352C11.6738 6.66547 12.4777 5.96508 13.3018 5.24708C14.1259 4.52908 14.8409 3.90612 14.8907 3.86273C14.9404 3.81934 14.9923 3.77957 15.006 3.77435C15.0684 3.75059 15.134 3.77221 15.1774 3.83085L15.1962 3.8563L15.1985 8.94027L15.2008 14.0242L15.1805 14.0541C15.1693 14.0705 15.1492 14.092 15.1358 14.102C15.1028 14.1265 15.0237 14.1328 14.987 14.1138C14.9697 14.1048 12.8692 11.5952 9.33235 7.35773C6.08574 3.46801 3.66876 0.57973 3.61899 0.530312C3.34783 0.261038 2.99777 0.0857891 2.60116 0.0207568C2.52537 0.00833232 2.4352 0.0048095 2.14235 0.00282736C1.94189 0.0014759 1.74547 0.00392655 1.70587 0.00827826Z" fill="#4546EA"/>
</svg>
