<svg width="24" height="24" viewBox="0 0 24 24" fill="none" xmlns="http://www.w3.org/2000/svg">
<path d="M9 15.77L8 19C6.09143 18.9125 4.29455 18.0751 3 16.67C3.02868 13.2333 3.64769 9.82706 4.83 6.6C4.8799 6.46212 4.95952 6.33689 5.06321 6.23321C5.16689 6.12952 5.29212 6.0499 5.43 6C7.56202 5.3591 9.77385 5.02244 12 5C14.2262 5.02244 16.438 5.3591 18.57 6C18.7069 6.04884 18.8315 6.12692 18.9351 6.22882C19.0387 6.33071 19.1189 6.45397 19.17 6.59C20.3534 9.82022 20.9725 13.2299 21 16.67C19.7055 18.0751 17.9086 18.9125 16 19L15 15.77" fill="#4546EA"/>
<path d="M9 15.77L8 19C6.09143 18.9125 4.29455 18.0751 3 16.67C3.02868 13.2333 3.64769 9.82706 4.83 6.6C4.8799 6.46212 4.95952 6.33689 5.06321 6.23321C5.16689 6.12952 5.29212 6.0499 5.43 6C7.56202 5.3591 9.77385 5.02244 12 5C14.2262 5.02244 16.438 5.3591 18.57 6C18.7069 6.04884 18.8315 6.12692 18.9351 6.22882C19.0387 6.33071 19.1189 6.45397 19.17 6.59C20.3534 9.82022 20.9725 13.2299 21 16.67C19.7054 18.0751 17.9086 18.9125 16 19L15 15.77" stroke="#4546EA" stroke-width="2.5" stroke-linecap="round" stroke-linejoin="round"/>
<path d="M7 15C8.58715 15.6508 10.2846 15.9903 12 16C13.7154 15.9903 15.4128 15.6508 17 15" stroke="#8FFF91" stroke-width="2.5" stroke-linecap="round" stroke-linejoin="round"/>
<path d="M14.9492 10H15.0492" stroke="#8FFF91" stroke-width="2.5" stroke-linecap="round" stroke-linejoin="round"/>
<path d="M9.04922 10H8.94922" stroke="#8FFF91" stroke-width="2.5" stroke-linecap="round" stroke-linejoin="round"/>
</svg>
