<svg width="140" height="140" viewBox="0 0 140 140" fill="none" xmlns="http://www.w3.org/2000/svg">
<path d="M70 0L71.8274 56.1198L88.1173 2.38519L75.3576 57.0657L105 9.37822L78.5227 58.8931L119.497 20.5025L81.1069 61.4773L130.622 35L82.9343 64.6424L137.615 51.8827L83.8802 68.1726L140 70L83.8802 71.8274L137.615 88.1173L82.9343 75.3576L130.622 105L81.1069 78.5227L119.497 119.497L78.5227 81.1069L105 130.622L75.3576 82.9343L88.1173 137.615L71.8274 83.8802L70 140L68.1726 83.8802L51.8827 137.615L64.6424 82.9343L35 130.622L61.4773 81.1069L20.5025 119.497L58.8931 78.5227L9.37822 105L57.0657 75.3576L2.38519 88.1173L56.1198 71.8274L0 70L56.1198 68.1726L2.38519 51.8827L57.0657 64.6424L9.37822 35L58.8931 61.4773L20.5025 20.5025L61.4773 58.8931L35 9.37822L64.6424 57.0657L51.8827 2.38519L68.1726 56.1198L70 0Z" fill="#8FFF91"/>
</svg>
