<svg width="100" height="100" viewBox="0 0 100 100" fill="none" xmlns="http://www.w3.org/2000/svg">
<path d="M50 0L51.3053 40.0856L62.941 1.70371L53.8268 40.7612L75 6.69873L56.0876 42.0665L85.3553 14.6447L57.9335 43.9124L93.3013 25L59.2388 46.1732L98.2963 37.059L59.9144 48.6947L100 50L59.9144 51.3053L98.2963 62.941L59.2388 53.8268L93.3013 75L57.9335 56.0876L85.3553 85.3553L56.0876 57.9335L75 93.3013L53.8268 59.2388L62.941 98.2963L51.3053 59.9144L50 100L48.6947 59.9144L37.059 98.2963L46.1732 59.2388L25 93.3013L43.9124 57.9335L14.6447 85.3553L42.0665 56.0876L6.69873 75L40.7612 53.8268L1.70371 62.941L40.0856 51.3053L0 50L40.0856 48.6947L1.70371 37.059L40.7612 46.1732L6.69873 25L42.0665 43.9124L14.6447 14.6447L43.9124 42.0665L25 6.69873L46.1732 40.7612L37.059 1.70371L48.6947 40.0856L50 0Z" fill="#8FFF91"/>
</svg>
